<mxfile host="app.diagrams.net" modified="2024-02-06T07:42:10.789Z" agent="Mozilla/5.0 (Windows NT 10.0; Win64; x64) AppleWebKit/537.36 (KHTML, like Gecko) Chrome/121.0.0.0 Safari/537.36" etag="aZ2W4euLSfbbqsv8bJHn" version="23.1.1" type="device">
  <diagram name="Page-1" id="HTuOdejX4zlKzkdRA5og">
    <mxGraphModel dx="1228" dy="666" grid="1" gridSize="10" guides="1" tooltips="1" connect="1" arrows="1" fold="1" page="1" pageScale="1" pageWidth="827" pageHeight="1169" math="0" shadow="0">
      <root>
        <mxCell id="0" />
        <mxCell id="1" parent="0" />
        <mxCell id="SvoOwImHCjtWqkh6cOlI-1" value="" style="shape=mxgraph.signs.transportation.car_1;html=1;pointerEvents=1;fillColor=#000000;strokeColor=none;verticalLabelPosition=bottom;verticalAlign=top;align=center;" vertex="1" parent="1">
          <mxGeometry x="90" y="140" width="60" height="50" as="geometry" />
        </mxCell>
        <mxCell id="SvoOwImHCjtWqkh6cOlI-2" value="DB" style="shape=cylinder3;whiteSpace=wrap;html=1;boundedLbl=1;backgroundOutline=1;size=15;" vertex="1" parent="1">
          <mxGeometry x="240" y="120" width="60" height="80" as="geometry" />
        </mxCell>
        <mxCell id="SvoOwImHCjtWqkh6cOlI-3" value="Power BI" style="image;html=1;image=img/lib/clip_art/finance/Pie_Chart_128x128.png" vertex="1" parent="1">
          <mxGeometry x="374" y="120" width="80" height="80" as="geometry" />
        </mxCell>
        <mxCell id="SvoOwImHCjtWqkh6cOlI-4" value="" style="endArrow=classic;html=1;rounded=0;exitX=1;exitY=0.5;exitDx=0;exitDy=0;exitPerimeter=0;entryX=0;entryY=0.5;entryDx=0;entryDy=0;" edge="1" parent="1" source="SvoOwImHCjtWqkh6cOlI-2" target="SvoOwImHCjtWqkh6cOlI-3">
          <mxGeometry width="50" height="50" relative="1" as="geometry">
            <mxPoint x="290" y="290" as="sourcePoint" />
            <mxPoint x="340" y="240" as="targetPoint" />
          </mxGeometry>
        </mxCell>
        <mxCell id="SvoOwImHCjtWqkh6cOlI-5" style="edgeStyle=orthogonalEdgeStyle;rounded=0;orthogonalLoop=1;jettySize=auto;html=1;exitX=0.99;exitY=0.5;exitDx=0;exitDy=0;exitPerimeter=0;entryX=0;entryY=0.566;entryDx=0;entryDy=0;entryPerimeter=0;" edge="1" parent="1" source="SvoOwImHCjtWqkh6cOlI-1" target="SvoOwImHCjtWqkh6cOlI-2">
          <mxGeometry relative="1" as="geometry" />
        </mxCell>
        <mxCell id="SvoOwImHCjtWqkh6cOlI-6" value="" style="sketch=0;outlineConnect=0;fontColor=#232F3E;gradientColor=none;fillColor=#232F3D;strokeColor=none;dashed=0;verticalLabelPosition=bottom;verticalAlign=top;align=center;html=1;fontSize=12;fontStyle=0;aspect=fixed;pointerEvents=1;shape=mxgraph.aws4.question;" vertex="1" parent="1">
          <mxGeometry x="180" y="130" width="15.77" height="30" as="geometry" />
        </mxCell>
        <mxCell id="SvoOwImHCjtWqkh6cOlI-7" value="Current Solution" style="text;html=1;strokeColor=#666666;fillColor=#f5f5f5;align=center;verticalAlign=middle;whiteSpace=wrap;rounded=0;fontColor=#333333;fontSize=18;" vertex="1" parent="1">
          <mxGeometry x="157.88" y="80" width="212.12" height="30" as="geometry" />
        </mxCell>
        <mxCell id="SvoOwImHCjtWqkh6cOlI-8" value="Car" style="shape=mxgraph.signs.transportation.car_1;html=1;pointerEvents=1;fillColor=#000000;strokeColor=none;verticalLabelPosition=bottom;verticalAlign=top;align=center;" vertex="1" parent="1">
          <mxGeometry x="90" y="140" width="60" height="50" as="geometry" />
        </mxCell>
        <mxCell id="SvoOwImHCjtWqkh6cOlI-9" value="DB" style="shape=cylinder3;whiteSpace=wrap;html=1;boundedLbl=1;backgroundOutline=1;size=15;" vertex="1" parent="1">
          <mxGeometry x="240" y="120" width="60" height="80" as="geometry" />
        </mxCell>
        <mxCell id="SvoOwImHCjtWqkh6cOlI-10" value="Power BI" style="image;html=1;image=img/lib/clip_art/finance/Pie_Chart_128x128.png" vertex="1" parent="1">
          <mxGeometry x="374" y="120" width="80" height="80" as="geometry" />
        </mxCell>
        <mxCell id="SvoOwImHCjtWqkh6cOlI-11" value="" style="endArrow=classic;html=1;rounded=0;exitX=1;exitY=0.5;exitDx=0;exitDy=0;exitPerimeter=0;entryX=0;entryY=0.5;entryDx=0;entryDy=0;" edge="1" parent="1" source="SvoOwImHCjtWqkh6cOlI-9" target="SvoOwImHCjtWqkh6cOlI-10">
          <mxGeometry width="50" height="50" relative="1" as="geometry">
            <mxPoint x="290" y="290" as="sourcePoint" />
            <mxPoint x="340" y="240" as="targetPoint" />
          </mxGeometry>
        </mxCell>
        <mxCell id="SvoOwImHCjtWqkh6cOlI-12" style="edgeStyle=orthogonalEdgeStyle;rounded=0;orthogonalLoop=1;jettySize=auto;html=1;exitX=0.99;exitY=0.5;exitDx=0;exitDy=0;exitPerimeter=0;entryX=0;entryY=0.566;entryDx=0;entryDy=0;entryPerimeter=0;" edge="1" parent="1" source="SvoOwImHCjtWqkh6cOlI-8" target="SvoOwImHCjtWqkh6cOlI-9">
          <mxGeometry relative="1" as="geometry" />
        </mxCell>
        <mxCell id="SvoOwImHCjtWqkh6cOlI-13" value="" style="sketch=0;outlineConnect=0;fontColor=#232F3E;gradientColor=none;fillColor=#232F3D;strokeColor=none;dashed=0;verticalLabelPosition=bottom;verticalAlign=top;align=center;html=1;fontSize=12;fontStyle=0;aspect=fixed;pointerEvents=1;shape=mxgraph.aws4.question;" vertex="1" parent="1">
          <mxGeometry x="180" y="130" width="15.77" height="30" as="geometry" />
        </mxCell>
        <mxCell id="SvoOwImHCjtWqkh6cOlI-14" value="Current Solution" style="text;html=1;strokeColor=#666666;fillColor=#f5f5f5;align=center;verticalAlign=middle;whiteSpace=wrap;rounded=0;fontColor=#333333;fontSize=18;" vertex="1" parent="1">
          <mxGeometry x="157.88" y="80" width="212.12" height="30" as="geometry" />
        </mxCell>
        <mxCell id="SvoOwImHCjtWqkh6cOlI-15" value="&lt;h1&gt;Questions&lt;/h1&gt;&lt;p&gt;&lt;/p&gt;&lt;ul&gt;&lt;li&gt;Where is the current DB? Onprem, Cloud?&amp;nbsp;&amp;nbsp;&lt;/li&gt;&lt;li&gt;How car data is synchronized with DB? Stream or Batch?&lt;/li&gt;&lt;li&gt;What is the Data size per day?&lt;/li&gt;&lt;li&gt;What kind of analysis does customer want to perform?&amp;nbsp;&lt;/li&gt;&lt;ul&gt;&lt;li&gt;Any future prediction? for Car count, Oil, maintenance, mileage?&lt;/li&gt;&lt;li&gt;Column based DWS or Row based DWS&lt;/li&gt;&lt;/ul&gt;&lt;/ul&gt;&lt;p&gt;&lt;/p&gt;" style="text;html=1;strokeColor=none;fillColor=none;spacing=5;spacingTop=-20;whiteSpace=wrap;overflow=hidden;rounded=0;" vertex="1" parent="1">
          <mxGeometry x="457" y="70" width="343" height="170" as="geometry" />
        </mxCell>
        <mxCell id="SvoOwImHCjtWqkh6cOlI-16" value="" style="shape=mxgraph.signs.transportation.car_1;html=1;pointerEvents=1;fillColor=#000000;strokeColor=none;verticalLabelPosition=bottom;verticalAlign=top;align=center;" vertex="1" parent="1">
          <mxGeometry x="104.23" y="740" width="60" height="50" as="geometry" />
        </mxCell>
        <mxCell id="SvoOwImHCjtWqkh6cOlI-17" value="DataArts Insight" style="image;html=1;image=img/lib/clip_art/finance/Pie_Chart_128x128.png" vertex="1" parent="1">
          <mxGeometry x="564.23" y="720" width="80" height="80" as="geometry" />
        </mxCell>
        <mxCell id="SvoOwImHCjtWqkh6cOlI-18" value="Solution 3" style="text;html=1;strokeColor=#666666;fillColor=#f5f5f5;align=center;verticalAlign=middle;whiteSpace=wrap;rounded=0;fontColor=#333333;fontSize=18;" vertex="1" parent="1">
          <mxGeometry x="90.00000000000001" y="680" width="120" height="30" as="geometry" />
        </mxCell>
        <mxCell id="SvoOwImHCjtWqkh6cOlI-19" value="Huawei Cloud" style="rounded=0;whiteSpace=wrap;html=1;fillColor=none;align=left;verticalAlign=top;" vertex="1" parent="1">
          <mxGeometry x="334.23" y="680" width="335.77" height="170" as="geometry" />
        </mxCell>
        <mxCell id="SvoOwImHCjtWqkh6cOlI-20" value="RDS/DWS&amp;nbsp;&lt;br&gt;or&amp;nbsp;MRS" style="strokeWidth=2;html=1;shape=mxgraph.flowchart.database;whiteSpace=wrap;" vertex="1" parent="1">
          <mxGeometry x="420" y="720" width="74.23" height="80" as="geometry" />
        </mxCell>
        <mxCell id="SvoOwImHCjtWqkh6cOlI-21" value="" style="endArrow=classic;html=1;rounded=0;exitX=1;exitY=0.5;exitDx=0;exitDy=0;exitPerimeter=0;entryX=0;entryY=0.5;entryDx=0;entryDy=0;" edge="1" parent="1" source="SvoOwImHCjtWqkh6cOlI-20" target="SvoOwImHCjtWqkh6cOlI-17">
          <mxGeometry width="50" height="50" relative="1" as="geometry">
            <mxPoint x="324.23" y="860" as="sourcePoint" />
            <mxPoint x="344.23" y="750" as="targetPoint" />
          </mxGeometry>
        </mxCell>
        <mxCell id="SvoOwImHCjtWqkh6cOlI-22" value="" style="edgeStyle=orthogonalEdgeStyle;rounded=0;orthogonalLoop=1;jettySize=auto;html=1;exitX=0.942;exitY=0.383;exitDx=0;exitDy=0;exitPerimeter=0;entryX=0;entryY=0.5;entryDx=0;entryDy=0;entryPerimeter=0;" edge="1" parent="1" source="SvoOwImHCjtWqkh6cOlI-16" target="SvoOwImHCjtWqkh6cOlI-20">
          <mxGeometry relative="1" as="geometry">
            <mxPoint x="314.23000000000013" y="760" as="sourcePoint" />
            <mxPoint x="410" y="760" as="targetPoint" />
          </mxGeometry>
        </mxCell>
        <mxCell id="SvoOwImHCjtWqkh6cOlI-23" value="Data Arts Studio" style="rounded=0;whiteSpace=wrap;html=1;" vertex="1" parent="1">
          <mxGeometry x="370" y="810" width="189.23" height="30" as="geometry" />
        </mxCell>
        <mxCell id="SvoOwImHCjtWqkh6cOlI-24" value="" style="shape=mxgraph.signs.transportation.car_1;html=1;pointerEvents=1;fillColor=#000000;strokeColor=none;verticalLabelPosition=bottom;verticalAlign=top;align=center;" vertex="1" parent="1">
          <mxGeometry x="104.23" y="370" width="60" height="50" as="geometry" />
        </mxCell>
        <mxCell id="SvoOwImHCjtWqkh6cOlI-25" value="DB" style="shape=cylinder3;whiteSpace=wrap;html=1;boundedLbl=1;backgroundOutline=1;size=15;" vertex="1" parent="1">
          <mxGeometry x="254.23" y="350" width="60" height="80" as="geometry" />
        </mxCell>
        <mxCell id="SvoOwImHCjtWqkh6cOlI-26" value="DataArts Insight&lt;br&gt;or FineBI" style="image;html=1;image=img/lib/clip_art/finance/Pie_Chart_128x128.png" vertex="1" parent="1">
          <mxGeometry x="564.23" y="350" width="80" height="80" as="geometry" />
        </mxCell>
        <mxCell id="SvoOwImHCjtWqkh6cOlI-27" style="edgeStyle=orthogonalEdgeStyle;rounded=0;orthogonalLoop=1;jettySize=auto;html=1;exitX=0.99;exitY=0.5;exitDx=0;exitDy=0;exitPerimeter=0;entryX=0;entryY=0.566;entryDx=0;entryDy=0;entryPerimeter=0;" edge="1" parent="1" source="SvoOwImHCjtWqkh6cOlI-24" target="SvoOwImHCjtWqkh6cOlI-25">
          <mxGeometry relative="1" as="geometry" />
        </mxCell>
        <mxCell id="SvoOwImHCjtWqkh6cOlI-28" value="" style="sketch=0;outlineConnect=0;fontColor=#232F3E;gradientColor=none;fillColor=#232F3D;strokeColor=none;dashed=0;verticalLabelPosition=bottom;verticalAlign=top;align=center;html=1;fontSize=12;fontStyle=0;aspect=fixed;pointerEvents=1;shape=mxgraph.aws4.question;" vertex="1" parent="1">
          <mxGeometry x="194.23" y="360" width="15.77" height="30" as="geometry" />
        </mxCell>
        <mxCell id="SvoOwImHCjtWqkh6cOlI-29" value="Solution 1" style="text;html=1;strokeColor=#666666;fillColor=#f5f5f5;align=center;verticalAlign=middle;whiteSpace=wrap;rounded=0;fontColor=#333333;fontSize=18;" vertex="1" parent="1">
          <mxGeometry x="90.00000000000001" y="310" width="120" height="30" as="geometry" />
        </mxCell>
        <mxCell id="SvoOwImHCjtWqkh6cOlI-30" value="RDS" style="strokeWidth=2;html=1;shape=mxgraph.flowchart.database;whiteSpace=wrap;" vertex="1" parent="1">
          <mxGeometry x="418.23" y="350" width="76" height="80" as="geometry" />
        </mxCell>
        <mxCell id="SvoOwImHCjtWqkh6cOlI-31" value="Huawei Cloud" style="rounded=0;whiteSpace=wrap;html=1;fillColor=none;align=left;verticalAlign=top;" vertex="1" parent="1">
          <mxGeometry x="334.23" y="310" width="330" height="170" as="geometry" />
        </mxCell>
        <mxCell id="SvoOwImHCjtWqkh6cOlI-32" style="edgeStyle=orthogonalEdgeStyle;rounded=0;orthogonalLoop=1;jettySize=auto;html=1;exitX=1;exitY=0.5;exitDx=0;exitDy=0;exitPerimeter=0;entryX=0;entryY=0.5;entryDx=0;entryDy=0;entryPerimeter=0;" edge="1" parent="1" source="SvoOwImHCjtWqkh6cOlI-35" target="SvoOwImHCjtWqkh6cOlI-30">
          <mxGeometry relative="1" as="geometry">
            <mxPoint x="173.23" y="405" as="sourcePoint" />
            <mxPoint x="264.23" y="405" as="targetPoint" />
          </mxGeometry>
        </mxCell>
        <mxCell id="SvoOwImHCjtWqkh6cOlI-33" value="" style="endArrow=classic;html=1;rounded=0;exitX=1;exitY=0.5;exitDx=0;exitDy=0;exitPerimeter=0;entryX=0;entryY=0.5;entryDx=0;entryDy=0;" edge="1" parent="1" source="SvoOwImHCjtWqkh6cOlI-30" target="SvoOwImHCjtWqkh6cOlI-26">
          <mxGeometry width="50" height="50" relative="1" as="geometry">
            <mxPoint x="324.23" y="490" as="sourcePoint" />
            <mxPoint x="344.23" y="380" as="targetPoint" />
          </mxGeometry>
        </mxCell>
        <mxCell id="SvoOwImHCjtWqkh6cOlI-34" value="" style="edgeStyle=orthogonalEdgeStyle;rounded=0;orthogonalLoop=1;jettySize=auto;html=1;exitX=1;exitY=0.5;exitDx=0;exitDy=0;exitPerimeter=0;entryX=0;entryY=0.5;entryDx=0;entryDy=0;entryPerimeter=0;" edge="1" parent="1" source="SvoOwImHCjtWqkh6cOlI-25" target="SvoOwImHCjtWqkh6cOlI-35">
          <mxGeometry relative="1" as="geometry">
            <mxPoint x="314.23" y="390" as="sourcePoint" />
            <mxPoint x="418.23" y="390" as="targetPoint" />
          </mxGeometry>
        </mxCell>
        <mxCell id="SvoOwImHCjtWqkh6cOlI-35" value="DRS" style="text;strokeColor=none;fillColor=none;spacingLeft=4;spacingRight=4;overflow=hidden;rotatable=0;points=[[0,0.5],[1,0.5]];portConstraint=eastwest;fontSize=16;whiteSpace=wrap;html=1;fontStyle=1" vertex="1" parent="1">
          <mxGeometry x="344.23" y="375" width="50" height="30" as="geometry" />
        </mxCell>
        <mxCell id="SvoOwImHCjtWqkh6cOlI-36" value="" style="shape=mxgraph.signs.transportation.car_1;html=1;pointerEvents=1;fillColor=#000000;strokeColor=none;verticalLabelPosition=bottom;verticalAlign=top;align=center;" vertex="1" parent="1">
          <mxGeometry x="104.23" y="550" width="60" height="50" as="geometry" />
        </mxCell>
        <mxCell id="SvoOwImHCjtWqkh6cOlI-37" value="DB" style="shape=cylinder3;whiteSpace=wrap;html=1;boundedLbl=1;backgroundOutline=1;size=15;" vertex="1" parent="1">
          <mxGeometry x="254.23" y="530" width="60" height="80" as="geometry" />
        </mxCell>
        <mxCell id="SvoOwImHCjtWqkh6cOlI-38" value="DataArts Insight&lt;br&gt;or FineBI" style="image;html=1;image=img/lib/clip_art/finance/Pie_Chart_128x128.png" vertex="1" parent="1">
          <mxGeometry x="564.23" y="530" width="80" height="80" as="geometry" />
        </mxCell>
        <mxCell id="SvoOwImHCjtWqkh6cOlI-39" style="edgeStyle=orthogonalEdgeStyle;rounded=0;orthogonalLoop=1;jettySize=auto;html=1;exitX=0.99;exitY=0.5;exitDx=0;exitDy=0;exitPerimeter=0;entryX=0;entryY=0.566;entryDx=0;entryDy=0;entryPerimeter=0;" edge="1" parent="1" source="SvoOwImHCjtWqkh6cOlI-36" target="SvoOwImHCjtWqkh6cOlI-37">
          <mxGeometry relative="1" as="geometry" />
        </mxCell>
        <mxCell id="SvoOwImHCjtWqkh6cOlI-40" value="" style="sketch=0;outlineConnect=0;fontColor=#232F3E;gradientColor=none;fillColor=#232F3D;strokeColor=none;dashed=0;verticalLabelPosition=bottom;verticalAlign=top;align=center;html=1;fontSize=12;fontStyle=0;aspect=fixed;pointerEvents=1;shape=mxgraph.aws4.question;" vertex="1" parent="1">
          <mxGeometry x="195.76999999999998" y="540" width="15.77" height="30" as="geometry" />
        </mxCell>
        <mxCell id="SvoOwImHCjtWqkh6cOlI-41" value="Solution 2" style="text;html=1;strokeColor=#666666;fillColor=#f5f5f5;align=center;verticalAlign=middle;whiteSpace=wrap;rounded=0;fontColor=#333333;fontSize=18;" vertex="1" parent="1">
          <mxGeometry x="90.00000000000001" y="490" width="120" height="30" as="geometry" />
        </mxCell>
        <mxCell id="SvoOwImHCjtWqkh6cOlI-42" value="RDS/DWS&amp;nbsp;&lt;br&gt;or&amp;nbsp;MRS" style="strokeWidth=2;html=1;shape=mxgraph.flowchart.database;whiteSpace=wrap;" vertex="1" parent="1">
          <mxGeometry x="418.23" y="530" width="76" height="80" as="geometry" />
        </mxCell>
        <mxCell id="SvoOwImHCjtWqkh6cOlI-43" value="Huawei Cloud" style="rounded=0;whiteSpace=wrap;html=1;fillColor=none;align=left;verticalAlign=top;" vertex="1" parent="1">
          <mxGeometry x="334.23" y="490" width="330" height="170" as="geometry" />
        </mxCell>
        <mxCell id="SvoOwImHCjtWqkh6cOlI-44" style="edgeStyle=orthogonalEdgeStyle;rounded=0;orthogonalLoop=1;jettySize=auto;html=1;exitX=1;exitY=0.5;exitDx=0;exitDy=0;exitPerimeter=0;entryX=0;entryY=0.5;entryDx=0;entryDy=0;entryPerimeter=0;" edge="1" parent="1" source="SvoOwImHCjtWqkh6cOlI-47" target="SvoOwImHCjtWqkh6cOlI-42">
          <mxGeometry relative="1" as="geometry">
            <mxPoint x="173.23" y="585" as="sourcePoint" />
            <mxPoint x="264.23" y="585" as="targetPoint" />
          </mxGeometry>
        </mxCell>
        <mxCell id="SvoOwImHCjtWqkh6cOlI-45" value="" style="endArrow=classic;html=1;rounded=0;exitX=1;exitY=0.5;exitDx=0;exitDy=0;exitPerimeter=0;entryX=0;entryY=0.5;entryDx=0;entryDy=0;" edge="1" parent="1" source="SvoOwImHCjtWqkh6cOlI-42" target="SvoOwImHCjtWqkh6cOlI-38">
          <mxGeometry width="50" height="50" relative="1" as="geometry">
            <mxPoint x="324.23" y="670" as="sourcePoint" />
            <mxPoint x="344.23" y="560" as="targetPoint" />
          </mxGeometry>
        </mxCell>
        <mxCell id="SvoOwImHCjtWqkh6cOlI-46" value="" style="edgeStyle=orthogonalEdgeStyle;rounded=0;orthogonalLoop=1;jettySize=auto;html=1;exitX=1;exitY=0.5;exitDx=0;exitDy=0;exitPerimeter=0;entryX=0;entryY=0.5;entryDx=0;entryDy=0;entryPerimeter=0;" edge="1" parent="1" source="SvoOwImHCjtWqkh6cOlI-37" target="SvoOwImHCjtWqkh6cOlI-47">
          <mxGeometry relative="1" as="geometry">
            <mxPoint x="314.23" y="570" as="sourcePoint" />
            <mxPoint x="418.23" y="570" as="targetPoint" />
          </mxGeometry>
        </mxCell>
        <mxCell id="SvoOwImHCjtWqkh6cOlI-47" value="CDM" style="text;strokeColor=none;fillColor=none;spacingLeft=4;spacingRight=4;overflow=hidden;rotatable=0;points=[[0,0.5],[1,0.5]];portConstraint=eastwest;fontSize=16;whiteSpace=wrap;html=1;fontStyle=1" vertex="1" parent="1">
          <mxGeometry x="344.23" y="555" width="50" height="30" as="geometry" />
        </mxCell>
        <mxCell id="SvoOwImHCjtWqkh6cOlI-48" value="Data Arts Studio" style="rounded=0;whiteSpace=wrap;html=1;" vertex="1" parent="1">
          <mxGeometry x="353.23" y="620" width="206" height="30" as="geometry" />
        </mxCell>
        <mxCell id="SvoOwImHCjtWqkh6cOlI-49" value="" style="shape=mxgraph.signs.transportation.car_1;html=1;pointerEvents=1;fillColor=#000000;strokeColor=none;verticalLabelPosition=bottom;verticalAlign=top;align=center;" vertex="1" parent="1">
          <mxGeometry x="104.23" y="930" width="60" height="50" as="geometry" />
        </mxCell>
        <mxCell id="SvoOwImHCjtWqkh6cOlI-50" value="DataArts Insight" style="image;html=1;image=img/lib/clip_art/finance/Pie_Chart_128x128.png" vertex="1" parent="1">
          <mxGeometry x="564.23" y="910" width="80" height="80" as="geometry" />
        </mxCell>
        <mxCell id="SvoOwImHCjtWqkh6cOlI-51" value="Solution 4" style="text;html=1;strokeColor=#666666;fillColor=#f5f5f5;align=center;verticalAlign=middle;whiteSpace=wrap;rounded=0;fontColor=#333333;fontSize=18;" vertex="1" parent="1">
          <mxGeometry x="90.00000000000001" y="870" width="120" height="30" as="geometry" />
        </mxCell>
        <mxCell id="SvoOwImHCjtWqkh6cOlI-52" value="RDS/DWS&amp;nbsp;&lt;br&gt;or&amp;nbsp;MRS" style="strokeWidth=2;html=1;shape=mxgraph.flowchart.database;whiteSpace=wrap;" vertex="1" parent="1">
          <mxGeometry x="418.23" y="910" width="76" height="80" as="geometry" />
        </mxCell>
        <mxCell id="SvoOwImHCjtWqkh6cOlI-53" value="Huawei Cloud" style="rounded=0;whiteSpace=wrap;html=1;fillColor=none;align=left;verticalAlign=top;" vertex="1" parent="1">
          <mxGeometry x="334.23" y="870" width="335.77" height="170" as="geometry" />
        </mxCell>
        <mxCell id="SvoOwImHCjtWqkh6cOlI-54" style="edgeStyle=orthogonalEdgeStyle;rounded=0;orthogonalLoop=1;jettySize=auto;html=1;exitX=1;exitY=0.5;exitDx=0;exitDy=0;exitPerimeter=0;entryX=0;entryY=0.5;entryDx=0;entryDy=0;entryPerimeter=0;" edge="1" parent="1" source="SvoOwImHCjtWqkh6cOlI-57" target="SvoOwImHCjtWqkh6cOlI-52">
          <mxGeometry relative="1" as="geometry">
            <mxPoint x="173.23" y="965" as="sourcePoint" />
            <mxPoint x="264.23" y="965" as="targetPoint" />
          </mxGeometry>
        </mxCell>
        <mxCell id="SvoOwImHCjtWqkh6cOlI-55" value="" style="endArrow=classic;html=1;rounded=0;exitX=1;exitY=0.5;exitDx=0;exitDy=0;exitPerimeter=0;entryX=0;entryY=0.5;entryDx=0;entryDy=0;" edge="1" parent="1" source="SvoOwImHCjtWqkh6cOlI-52" target="SvoOwImHCjtWqkh6cOlI-50">
          <mxGeometry width="50" height="50" relative="1" as="geometry">
            <mxPoint x="324.23" y="1050" as="sourcePoint" />
            <mxPoint x="344.23" y="940" as="targetPoint" />
          </mxGeometry>
        </mxCell>
        <mxCell id="SvoOwImHCjtWqkh6cOlI-56" value="" style="edgeStyle=orthogonalEdgeStyle;rounded=0;orthogonalLoop=1;jettySize=auto;html=1;exitX=0.942;exitY=0.383;exitDx=0;exitDy=0;exitPerimeter=0;entryX=0;entryY=0.5;entryDx=0;entryDy=0;entryPerimeter=0;" edge="1" parent="1" source="SvoOwImHCjtWqkh6cOlI-49" target="SvoOwImHCjtWqkh6cOlI-57">
          <mxGeometry relative="1" as="geometry">
            <mxPoint x="314.23000000000013" y="950" as="sourcePoint" />
            <mxPoint x="418.23" y="950" as="targetPoint" />
          </mxGeometry>
        </mxCell>
        <mxCell id="SvoOwImHCjtWqkh6cOlI-57" value="DMS" style="text;strokeColor=none;fillColor=none;spacingLeft=4;spacingRight=4;overflow=hidden;rotatable=0;points=[[0,0.5],[1,0.5]];portConstraint=eastwest;fontSize=16;whiteSpace=wrap;html=1;fontStyle=1" vertex="1" parent="1">
          <mxGeometry x="344.23" y="935" width="50" height="30" as="geometry" />
        </mxCell>
        <mxCell id="SvoOwImHCjtWqkh6cOlI-58" value="Data Arts Studio" style="rounded=0;whiteSpace=wrap;html=1;" vertex="1" parent="1">
          <mxGeometry x="353.23" y="1000" width="206" height="30" as="geometry" />
        </mxCell>
        <mxCell id="SvoOwImHCjtWqkh6cOlI-59" value="" style="sketch=0;outlineConnect=0;fontColor=#232F3E;gradientColor=none;fillColor=#232F3D;strokeColor=none;dashed=0;verticalLabelPosition=bottom;verticalAlign=top;align=center;html=1;fontSize=12;fontStyle=0;aspect=fixed;pointerEvents=1;shape=mxgraph.aws4.question;" vertex="1" parent="1">
          <mxGeometry x="256.06" y="730" width="15.77" height="30" as="geometry" />
        </mxCell>
      </root>
    </mxGraphModel>
  </diagram>
</mxfile>
